<svg width="36" height="36" viewBox="0 0 36 36" fill="none" xmlns="http://www.w3.org/2000/svg">
<path fill-rule="evenodd" clip-rule="evenodd" d="M0 18C0 27.9414 8.0586 36 18 36C27.9414 36 36 27.9414 36 18C36 8.0586 27.9414 0 18 0C8.0586 0 0 8.0586 0 18ZM11.7 25.2V21.6H21.6C22.0971 21.6 22.5 21.1971 22.5 20.7C22.5 20.2029 22.0971 19.8 21.6 19.8L14.4 19.8C11.9147 19.8 9.9 17.7853 9.9 15.3C9.9 12.8147 11.9147 10.8 14.4 10.8H16.2V7.2H19.8V10.8H24.3V14.4H14.4C13.9029 14.4 13.5 14.8029 13.5 15.3C13.5 15.7971 13.9029 16.2 14.4 16.2H21.6C24.0853 16.2 26.1 18.2147 26.1 20.7C26.1 23.1853 24.0853 25.2 21.6 25.2H19.8V28.8H16.2V25.2H11.7Z" fill="#2BD67B"/>
</svg>
