<svg width="34" height="34" viewBox="0 0 34 34" fill="none" xmlns="http://www.w3.org/2000/svg">
<path fill-rule="evenodd" clip-rule="evenodd" d="M16.9987 33.6663C7.7937 33.6663 0.332031 26.2047 0.332031 16.9997C0.332031 7.79467 7.7937 0.333008 16.9987 0.333008C26.2037 0.333008 33.6654 7.79467 33.6654 16.9997C33.6654 26.2047 26.2037 33.6663 16.9987 33.6663ZM27.5904 23.5863V23.4113C27.5904 21.8747 27.5904 21.173 26.5037 20.5513C26.1544 20.3533 25.7957 20.1726 25.4287 20.0097L25.42 20.0057C24.8132 19.7296 24.4094 19.5459 23.8654 18.7497C23.8001 18.6547 23.7356 18.5591 23.672 18.463C23.097 17.588 22.682 16.958 21.102 17.208C17.9937 17.7013 17.7637 18.248 17.627 19.1713L17.6054 19.323C17.4037 20.673 17.367 21.1263 17.9304 21.718C20.0387 23.9297 21.302 25.5247 21.6854 26.458C21.872 26.913 22.352 28.2913 22.022 29.6547C24.0451 28.8489 25.8458 27.5705 27.2737 25.9263C27.457 25.303 27.5904 24.5263 27.5904 23.5863ZM7.17203 7.58134C9.6487 4.99801 13.137 3.38801 16.9987 3.38801C18.9021 3.38602 20.7845 3.78466 22.5237 4.55801C21.6004 5.17801 20.1104 6.18301 19.6237 6.84967C19.5691 6.92445 19.509 7.07394 19.4344 7.25935C19.2013 7.83841 18.8273 8.76787 18.042 8.86634C17.7761 8.90039 17.425 8.87765 17.0501 8.85337L17.0187 8.85134L17.0173 8.85125C15.9808 8.78459 14.5652 8.69356 14.112 9.92467C13.8237 10.7063 13.772 12.823 14.7054 13.923C14.8537 14.0997 14.8837 14.423 14.7804 14.7897C14.6487 15.268 14.3804 15.5597 14.297 15.6197C14.1354 15.5263 13.8137 15.1547 13.597 14.903C13.0754 14.2947 12.422 13.5363 11.5787 13.303C11.2955 13.2245 10.9868 13.1588 10.6826 13.0941C10.6574 13.0887 10.6322 13.0834 10.607 13.078C9.69203 12.888 8.65536 12.668 8.41536 12.1547C8.24036 11.7797 8.24036 11.2597 8.24036 10.713C8.24036 10.018 8.24036 9.23301 7.90036 8.47134C7.7237 8.07467 7.46703 7.78634 7.17203 7.58134Z" fill="#416FF4"/>
</svg>
