<svg width="28" height="34" viewBox="0 0 28 34" fill="none" xmlns="http://www.w3.org/2000/svg">
<path fill-rule="evenodd" clip-rule="evenodd" d="M1.29275 9.63769C-0.463923 15.1768 1.56914 21.2158 6.31809 24.5647H6.31642L2.84476 32.4997C2.73223 32.7576 2.75738 33.0548 2.91164 33.29C3.0659 33.5253 3.32844 33.6668 3.60976 33.6664H24.3931C24.6749 33.6671 24.9379 33.5253 25.0922 33.2896C25.2466 33.0538 25.2714 32.7561 25.1581 32.4981L21.6864 24.5647C26.4354 21.2158 28.4684 15.1768 26.7118 9.63769C24.9551 4.09854 19.8133 0.335022 14.0023 0.335022C8.19122 0.335022 3.04943 4.09854 1.29275 9.63769ZM14.0014 20.3253C10.9446 20.3253 8.27907 18.2474 7.53309 15.2831L10.7664 14.4747C11.1356 15.961 12.47 17.0044 14.0014 17.0044C15.5328 17.0044 16.8672 15.961 17.2364 14.4747L20.4698 15.2831C19.7238 18.2474 17.0582 20.3253 14.0014 20.3253Z" fill="#CB41F4"/>
</svg>
