<svg width="31" height="34" viewBox="0 0 31 34" fill="none" xmlns="http://www.w3.org/2000/svg">
<path fill-rule="evenodd" clip-rule="evenodd" d="M30.332 9.49967C30.332 4.43634 26.2287 0.333008 21.1654 0.333008C16.102 0.333008 11.9987 4.43634 11.9987 9.49967C11.9987 14.563 16.102 18.6663 21.1654 18.6663C26.2287 18.6663 30.332 14.563 30.332 9.49967ZM6.9987 16.9997C10.682 16.9997 13.6654 19.983 13.6654 23.6663C13.6654 27.3497 10.682 30.333 6.9987 30.333C3.31537 30.333 0.332031 27.3497 0.332031 23.6663C0.332031 19.983 3.31537 16.9997 6.9987 16.9997ZM23.6654 23.6663C26.427 23.6663 28.6654 25.9047 28.6654 28.6663C28.6654 31.428 26.427 33.6663 23.6654 33.6663C20.9037 33.6663 18.6654 31.428 18.6654 28.6663C18.6654 25.9047 20.9037 23.6663 23.6654 23.6663Z" fill="#416FF4"/>
</svg>
