<svg width="118" height="118" viewBox="0 0 118 118" fill="none" xmlns="http://www.w3.org/2000/svg">
<path d="M87.7837 13.211V13.211C86.4341 11.8608 86.4341 9.67738 87.7837 8.3272L89.4273 6.68948C90.7823 5.34464 92.9735 5.34464 94.3285 6.68948V6.68948C95.673 8.04011 95.673 10.2184 94.3285 11.569L92.6807 13.211C91.3253 14.5507 89.1392 14.5507 87.7837 13.211Z" fill="#83FFA3"/>
<path opacity="0.4" d="M87.7837 13.211V13.211C86.4341 11.8608 86.4341 9.67738 87.7837 8.3272L89.4273 6.68948C90.7823 5.34464 92.9735 5.34464 94.3285 6.68948V6.68948C95.673 8.04011 95.673 10.2184 94.3285 11.569L92.6807 13.211C91.3253 14.5507 89.1392 14.5507 87.7837 13.211Z" fill="white"/>
<path d="M90.0979 10.9182V10.9182C88.3554 9.17749 88.3554 6.35993 90.0979 4.61925L93.3176 1.41099C95.0645 -0.325311 97.8921 -0.325311 99.639 1.41099V1.41099C101.384 3.15072 101.384 5.97019 99.639 7.70992L96.4109 10.9182C94.6631 12.6443 91.8457 12.6443 90.0979 10.9182Z" fill="#83FFA3"/>
<path d="M94.5862 6.4291V6.4291C91.6072 3.47586 86.7934 3.47586 83.8145 6.4291L94.5862 17.1667C97.5481 14.1959 97.5481 9.39985 94.5862 6.4291Z" fill="#83FFA3"/>
<path d="M98.9556 27.2492C98.5949 27.2492 98.3024 26.9578 98.3024 26.5983C98.3024 26.2388 98.5949 25.9474 98.9556 25.9474C105.473 25.9474 110.756 20.6832 110.756 14.1894C110.756 7.69564 105.473 2.4314 98.9556 2.4314C98.7105 2.45107 98.4751 2.33189 98.3465 2.12304C98.2178 1.91418 98.2178 1.65105 98.3465 1.44219C98.4751 1.23333 98.7105 1.11416 98.9556 1.13382C103.693 1.04916 108.108 3.51926 110.502 7.59413C112.896 11.669 112.896 16.714 110.502 20.7889C108.108 24.8638 103.693 27.3339 98.9556 27.2492V27.2492Z" fill="#83FFA3"/>
<path fill-rule="evenodd" clip-rule="evenodd" d="M99.9329 45.0793L114.843 115.627L115.581 115.606L115.441 117.63H81.3984L81.567 115.149H83.8638L83.8343 115.606H94.1214L105.681 82.2388L97.9395 45.6211L99.9329 45.0793ZM112.736 115.627L105.993 83.6582L94.901 115.627H112.736Z" fill="#83FFA3"/>
<path fill-rule="evenodd" clip-rule="evenodd" d="M25.7072 45.1003L40.6005 115.627H41.338L41.1989 117.651H7.16016L7.32451 115.17H9.62551L9.5918 115.627H19.8915L31.4513 82.2598L23.7139 45.642L25.7072 45.1003ZM38.4934 115.627L31.7505 83.6582L20.6501 115.627H38.4934Z" fill="#83FFA3"/>
<path d="M106.735 80.114L104.817 85.6445H30.7598L32.6731 80.114H106.735V80.114Z" fill="#83FFA3"/>
<path d="M103.819 84.2839L104.818 85.6445H30.7605L29.7617 84.2839H103.819V84.2839Z" fill="#83FFA3"/>
<path opacity="0.2" d="M103.819 84.2839L104.818 85.6445H30.7605L29.7617 84.2839H103.819V84.2839Z" fill="black"/>
<path d="M91.9047 71.5853H1.44931L0.138672 70.2835L116.584 20.925L117.89 22.2268L91.9047 71.5853V71.5853Z" fill="#83FFA3"/>
<path opacity="0.4" d="M91.9047 71.5853H1.44931L0.138672 70.2835L116.584 20.925L117.89 22.2268L91.9047 71.5853V71.5853Z" fill="black"/>
<path d="M12.9579 42.7743L15.468 38.0023L15.8412 38.1972L13.3312 42.9692L12.9579 42.7743Z" fill="#83FFA3"/>
<path d="M10.9383 46.6102L12.1317 44.3414L12.505 44.5363L11.3116 46.8051L10.9383 46.6102Z" fill="#83FFA3"/>
<path d="M90.5941 70.2835H0.138672L26.1282 20.925H116.584L90.5941 70.2835V70.2835Z" fill="#83FFA3"/>
<path opacity="0.3" d="M81.4997 62.3678L17.4805 62.5946L36.4195 27.2953C51.5909 28.3788 74.3143 28.4795 99.1702 27.9882L81.4997 62.3678Z" fill="black"/>
<path d="M80.5779 62.5946H17.1191L35.3501 27.9673C54.896 28.6896 75.8284 28.2276 98.3748 27.6061C94.8811 36.3323 88.5429 48.9931 80.5779 62.5946Z" fill="white"/>
<g opacity="0.6">
<path d="M28.2952 58.5129C34.2598 58.4793 40.2245 58.4513 46.1891 58.4289L65.3851 58.3407L75.0232 58.2945C75.1028 58.2817 75.1613 58.2132 75.1613 58.1329C75.1613 58.0525 75.1028 57.984 75.0232 57.9712L57.1294 58.0552L37.9333 58.1392L28.2952 58.1854C28.2044 58.1854 28.1309 58.2587 28.1309 58.3491C28.1309 58.4396 28.2044 58.5129 28.2952 58.5129V58.5129Z" fill="#83FFA3"/>
<path d="M74.2348 58.8278C78.0586 51.5771 81.9174 44.3431 85.8114 37.1259C86.9353 35.0487 88.0591 32.9714 89.1829 30.8942C89.284 30.7094 89.0017 30.5456 88.9005 30.7262C84.9672 37.9406 81.0802 45.1745 77.2396 52.4281C76.1354 54.5082 75.0369 56.5868 73.944 58.6641C73.8471 58.8488 74.1252 59.0126 74.2264 58.8278H74.2348Z" fill="#83FFA3"/>
<path d="M89.3775 31.0453C83.3848 31.0789 77.3935 31.1069 71.4036 31.1293L51.98 31.2175L42.3714 31.2637C42.2806 31.2637 42.207 31.337 42.207 31.4275C42.207 31.5179 42.2806 31.5913 42.3714 31.5913C48.3641 31.5577 54.3554 31.5297 60.3453 31.5073L79.769 31.4191L89.3775 31.3729C89.4683 31.3729 89.5419 31.2996 89.5419 31.2091C89.5419 31.1187 89.4683 31.0453 89.3775 31.0453V31.0453Z" fill="#83FFA3"/>
<path d="M43.5041 30.4575C39.6439 37.7894 35.7428 45.1032 31.8011 52.3987C30.6773 54.49 29.545 56.5784 28.4044 58.6641C28.3032 58.8488 28.5856 59.0126 28.6867 58.8278C32.6538 51.5491 36.5871 44.2367 40.4867 36.8908C41.5937 34.8023 42.6978 32.7125 43.7991 30.6212C43.9003 30.4365 43.6179 30.2727 43.5168 30.4575H43.5041Z" fill="#83FFA3"/>
<path d="M49.8841 55.0107L56.471 42.0685L58.2452 38.5915C58.3421 38.4067 58.0598 38.2387 57.9628 38.4277L51.1652 51.7394L49.5848 54.8259C49.4921 55.0149 49.7745 55.1787 49.8672 54.9897L49.8841 55.0107Z" fill="#83FFA3"/>
<path d="M34.25 55.0652L38.0429 47.6325C38.1356 47.4435 37.8532 47.2798 37.7605 47.4645L33.9677 54.9015C33.8749 55.0904 34.1573 55.2542 34.25 55.0652Z" fill="#83FFA3"/>
<path d="M71.644 55.0107C74.8005 49.3374 77.5861 43.4668 80.5783 37.7054C81.3115 36.2944 82.0533 34.8835 82.8287 33.5061C82.9298 33.3213 82.6475 33.1576 82.5463 33.3423C79.3898 39.0114 76.6 44.8862 73.612 50.6434C72.8788 52.0586 72.137 53.4653 71.3616 54.8427C71.2605 55.0233 71.5386 55.1912 71.644 55.0065V55.0107Z" fill="#83FFA3"/>
<path d="M54.3258 54.9687C57.1915 49.3543 60.0867 43.7482 62.944 38.1296L63.9133 36.2231L64.4358 35.1943L64.6929 34.6819C64.7645 34.5434 64.8741 34.157 65.0174 34.0814C65.2285 34.052 65.4427 34.052 65.6538 34.0814H66.4587H68.1823C70.7474 34.0562 73.3111 34.0352 75.8734 34.0185C78.4652 34.0185 81.0528 33.9975 83.6445 34.0436C83.7242 34.0308 83.7827 33.9623 83.7827 33.882C83.7827 33.8016 83.7242 33.7331 83.6445 33.7203C77.3948 33.6111 71.1408 33.7203 64.8952 33.7917C64.8366 33.7909 64.782 33.8213 64.7519 33.8715C61.2203 40.8801 57.6129 47.8509 54.0434 54.8385C53.9465 55.0275 54.2288 55.1913 54.3258 55.0023V54.9687Z" fill="#83FFA3"/>
<path d="M71.6674 54.8889C70.1292 49.3668 68.2959 43.9287 66.5344 38.4781C66.0371 36.9439 65.5426 35.4112 65.0509 33.8798C64.9877 33.6783 64.6717 33.7623 64.7349 33.9638C66.5175 39.5531 68.3887 45.1171 70.1039 50.7274C70.5253 52.1384 70.9467 53.5535 71.3682 54.9771C71.3962 55.0594 71.484 55.1056 71.5681 55.0821C71.6522 55.0587 71.7032 54.9738 71.6842 54.8889H71.6674Z" fill="#83FFA3"/>
<path d="M82.7398 33.7328C79.2588 36.6723 75.525 39.2759 71.8037 41.8878C67.7749 44.714 63.7123 47.4897 59.7551 50.4082C57.7997 51.8486 55.8653 53.3225 54.011 54.8888C53.8509 55.0232 54.0827 55.2542 54.2428 55.1198C57.7912 52.1257 61.5925 49.4382 65.3896 46.7674C69.389 43.9539 73.4304 41.195 77.375 38.3017C79.2799 36.9075 81.1679 35.4797 82.9716 33.9638C83.1317 33.8252 82.8999 33.5985 82.7398 33.7328V33.7328Z" fill="#83FFA3"/>
<path d="M53.7162 54.9225C58.5374 55.061 63.3585 55.1156 68.1797 55.1198C69.3428 55.1198 70.5102 55.1198 71.6733 55.0946C71.7529 55.0818 71.8114 55.0133 71.8114 54.933C71.8114 54.8526 71.7529 54.7841 71.6733 54.7713C66.8395 54.8637 61.9805 54.7713 57.1593 54.6789C56.013 54.6537 54.8625 54.6327 53.7162 54.5991C53.6366 54.6119 53.5781 54.6804 53.5781 54.7608C53.5781 54.8412 53.6366 54.9096 53.7162 54.9225V54.9225Z" fill="#83FFA3"/>
<path d="M47.0308 55.1198C50.1031 49.4214 52.9308 43.6054 55.9103 37.8523C56.6436 36.4302 57.3881 35.0136 58.1439 33.6027C58.2408 33.4179 57.9585 33.2541 57.8616 33.4389C54.7893 39.1373 51.9616 44.9533 48.9821 50.7064C48.2488 52.1299 47.5113 53.5493 46.7485 54.956C46.6516 55.1408 46.9339 55.3046 47.0308 55.1198Z" fill="#83FFA3"/>
<path d="M37.9576 55.0484C39.8794 51.2859 41.8039 47.5247 43.7312 43.7649C44.6921 41.8837 45.6529 40.0024 46.6138 38.1211C47.0858 37.2015 47.5536 36.2776 48.0214 35.358C48.1731 35.0556 48.4049 34.2913 48.7336 34.1612C49.0128 34.1178 49.2972 34.1178 49.5764 34.1612H50.512C52.9563 34.1192 55.4048 34.073 57.8533 34.1612C58.0598 34.1612 58.0598 33.842 57.8533 33.8336C54.7474 33.737 51.6414 33.8336 48.5397 33.8798C48.4811 33.879 48.4265 33.9094 48.3964 33.9596C44.8522 40.9598 41.2574 47.939 37.6879 54.9267C37.591 55.1114 37.8734 55.2794 37.9703 55.0904L37.9576 55.0484Z" fill="#83FFA3"/>
<path d="M47.0572 55.04C47.6852 48.0314 48.0392 41.006 48.6882 34.0016C48.7092 33.7916 48.3847 33.7916 48.3637 34.0016C47.7147 41.006 47.3607 48.0314 46.7285 55.04C46.7285 55.2458 47.0362 55.2458 47.0572 55.04Z" fill="#83FFA3"/>
<path d="M57.9008 33.8379C52.6751 39.4565 47.2471 44.882 41.9413 50.4208C40.4944 51.9242 39.0615 53.4401 37.6427 54.9687C37.4994 55.1199 37.7312 55.3508 37.8745 55.1954C43.1297 49.5264 48.5998 44.0547 53.9562 38.4781C55.361 37.0167 56.7531 35.547 58.1326 34.0688C58.2758 33.9176 58.0441 33.6867 57.9008 33.8379V33.8379Z" fill="#83FFA3"/>
<path d="M37.5545 55.0107C40.6604 55.1619 43.7832 55.2963 46.8934 55.2081C47.1041 55.2081 47.1041 54.8763 46.8934 54.8847C43.7832 54.9687 40.6604 54.8386 37.5545 54.6874C37.3438 54.6874 37.3438 55.0023 37.5545 55.0107Z" fill="#83FFA3"/>
<path d="M42.5652 35.7233C42.4077 35.9828 42.3607 36.2942 42.4345 36.5884C42.5145 36.8382 42.7186 37.0289 42.974 37.0923C43.5987 37.194 44.2362 37.0105 44.7103 36.5926C45.2039 36.2337 45.4827 35.6511 45.452 35.043C45.3801 34.5324 44.9229 34.165 44.4068 34.2032C44.0466 34.244 43.7131 34.4124 43.467 34.6777C43.3304 34.8033 43.201 34.9365 43.0793 35.0766C42.9624 35.1936 42.8768 35.338 42.8307 35.4965C42.7928 35.7023 43.1088 35.7905 43.1468 35.5847C43.1847 35.379 43.4207 35.1648 43.5682 35.0178C43.7337 34.8324 43.9341 34.6811 44.1582 34.5727C44.3372 34.493 44.5418 34.4933 44.7205 34.5736C44.8992 34.6538 45.035 34.8063 45.0938 34.9926C45.1668 35.4383 45.0081 35.8904 44.6723 36.1936C44.316 36.5633 43.8364 36.7903 43.3238 36.8319C43.1136 36.8617 42.903 36.7806 42.7675 36.6178C42.661 36.3892 42.6817 36.1218 42.8223 35.9123C42.9192 35.7275 42.6368 35.5637 42.5399 35.7485L42.5652 35.7233Z" fill="#83FFA3"/>
</g>
<path opacity="0.2" d="M116.584 20.925L90.6067 70.2835H0.138672L26.1282 20.925H52.0587L38.8427 26.9594H38.8132C32.0703 29.4076 26.6802 33.1576 23.9241 37.8398C17.6027 48.5648 27.5357 60.096 46.0912 63.6318C64.6467 67.1676 84.7995 61.3054 91.1082 50.5804C92.4248 48.4361 93.0812 45.954 92.9962 43.4416L94.3575 20.8998L116.584 20.925Z" fill="black"/>
</svg>
