<svg width="1600" height="1103" viewBox="0 0 1600 1103" fill="none" xmlns="http://www.w3.org/2000/svg">
<rect width="1600" height="1103" fill="#F4F7FA"/>
<mask id="mask0_0_462" style="mask-type:luminance" maskUnits="userSpaceOnUse" x="0" y="0" width="1600" height="1103">
<rect width="1600" height="1103" fill="white"/>
</mask>
<g mask="url(#mask0_0_462)">
<path fill-rule="evenodd" clip-rule="evenodd" d="M1594.5 1075H1594.49C1593.68 1075 1592.97 1075.32 1592.38 1075.78C1592.26 1075.87 1592.12 1075.92 1592.02 1076.03C1591.45 1076.6 1591.13 1077.38 1591.05 1078.23C1591.05 1078.32 1591 1078.4 1591 1078.5C1591 1078.93 1591.1 1079.34 1591.25 1079.72C1591.29 1079.84 1591.35 1079.95 1591.41 1080.06C1591.54 1080.31 1591.69 1080.54 1591.88 1080.76C1591.97 1080.86 1592.05 1080.97 1592.15 1081.06C1592.43 1081.31 1592.74 1081.54 1593.09 1081.69H1593.09C1593.53 1081.88 1594 1082 1594.5 1082C1596.06 1082 1597.34 1080.96 1597.79 1079.55C1597.91 1079.23 1597.99 1078.89 1598 1078.52C1598 1078.51 1598 1078.51 1598 1078.5C1598 1076.57 1596.43 1075 1594.5 1075M1642.8 1034.26C1642.46 1034.12 1642.09 1034.07 1641.7 1034.04C1641.63 1034.04 1641.58 1034 1641.5 1034H1641.49C1639.56 1034 1638 1035.57 1638 1037.5C1638 1037.97 1638.1 1038.42 1638.27 1038.82C1638.39 1039.11 1638.58 1039.34 1638.76 1039.59C1638.84 1039.68 1638.88 1039.79 1638.96 1039.88C1639.54 1040.5 1640.35 1040.88 1641.24 1040.95C1641.25 1040.95 1641.25 1040.95 1641.26 1040.95V1040.95C1641.34 1040.96 1641.42 1041 1641.5 1041C1643.43 1041 1645 1039.43 1645 1037.5C1645 1036.03 1644.09 1034.78 1642.8 1034.26M1524.5 973H1524.49C1522.56 973 1521 974.567 1521 976.5C1521 978.43 1522.57 980 1524.5 980C1526.43 980 1528 978.43 1528 976.5C1528 974.567 1526.43 973 1524.5 973M1524.5 1055H1524.49C1522.56 1055 1521 1056.57 1521 1058.5C1521 1060.43 1522.57 1062 1524.5 1062C1526.43 1062 1528 1060.43 1528 1058.5C1528 1056.57 1526.43 1055 1524.5 1055M1548.5 1001C1550.43 1001 1552 999.43 1552 997.5C1552 995.565 1550.43 994 1548.5 994H1548.49C1546.56 994 1545 995.565 1545 997.5C1545 999.43 1546.57 1001 1548.5 1001M1524.5 952H1524.49C1522.56 952 1521 953.567 1521 955.5C1521 957.433 1522.57 959 1524.5 959C1526.43 959 1528 957.433 1528 955.5C1528 953.567 1526.43 952 1524.5 952M1524.5 1013H1524.49C1522.56 1013 1521 1014.57 1521 1016.5C1521 1018.43 1522.57 1020 1524.5 1020C1526.43 1020 1528 1018.43 1528 1016.5C1528 1014.57 1526.43 1013 1524.5 1013M1524.5 1034H1524.49C1522.56 1034 1521 1035.57 1521 1037.5C1521 1039.43 1522.57 1041 1524.5 1041C1526.43 1041 1528 1039.43 1528 1037.5C1528 1035.57 1526.43 1034 1524.5 1034M1548.5 959C1550.43 959 1552 957.433 1552 955.5C1552 953.567 1550.43 952 1548.5 952H1548.49C1546.56 952 1545 953.567 1545 955.5C1545 957.433 1546.57 959 1548.5 959M1548.5 980C1550.43 980 1552 978.43 1552 976.5C1552 974.567 1550.43 973 1548.5 973H1548.49C1546.56 973 1545 974.567 1545 976.5C1545 978.43 1546.57 980 1548.5 980M1548.5 939C1550.43 939 1552 937.433 1552 935.5C1552 933.567 1550.43 932 1548.5 932H1548.49C1546.56 932 1545 933.567 1545 935.5C1545 937.433 1546.57 939 1548.5 939M1524.5 994H1524.49C1522.56 994 1521 995.565 1521 997.5C1521 999.43 1522.57 1001 1524.5 1001C1526.43 1001 1528 999.43 1528 997.5C1528 995.565 1526.43 994 1524.5 994M1501.51 1013H1501.49C1499.56 1013 1498 1014.57 1498 1016.5C1498 1018.43 1499.58 1020 1501.51 1020C1503.44 1020 1505 1018.43 1505 1016.5C1505 1014.57 1503.44 1013 1501.51 1013M1501.51 994H1501.49C1499.56 994 1498 995.565 1498 997.5C1498 999.43 1499.58 1001 1501.51 1001C1503.44 1001 1505 999.43 1505 997.5C1505 995.565 1503.44 994 1501.51 994M1501.51 1034H1501.48C1501.05 1034 1500.64 1034.1 1500.25 1034.25C1500.06 1034.33 1499.9 1034.44 1499.72 1034.55C1499.58 1034.64 1499.43 1034.73 1499.29 1034.84C1499.06 1035.03 1498.88 1035.25 1498.71 1035.49C1498.67 1035.54 1498.64 1035.59 1498.61 1035.64C1498.42 1035.94 1498.28 1036.24 1498.18 1036.59L1498.18 1036.59V1036.6C1498.1 1036.89 1498 1037.18 1498 1037.5C1498 1038.88 1498.82 1040.05 1499.98 1040.62V1040.62H1499.98C1500.44 1040.84 1500.94 1040.99 1501.49 1041C1501.49 1041 1501.5 1041 1501.51 1041C1503.44 1041 1505 1039.43 1505 1037.5C1505 1037.02 1504.9 1036.56 1504.72 1036.14C1504.2 1034.88 1502.95 1034 1501.51 1034M1618.5 994H1618.49C1616.56 994 1615 995.565 1615 997.5C1615 999.43 1616.57 1001 1618.5 1001C1620.43 1001 1622 999.43 1622 997.5C1622 995.565 1620.43 994 1618.5 994M1501.51 973H1501.48C1501.09 973 1500.72 973.088 1500.37 973.226C1500.06 973.335 1499.78 973.499 1499.52 973.689C1499.51 973.689 1499.51 973.689 1499.51 973.691V973.691C1498.62 974.325 1498 975.318 1498 976.5C1498 976.65 1498.07 976.775 1498.09 976.923H1498.08C1498.08 976.927 1498.09 976.93 1498.09 976.932C1498.2 977.785 1498.58 978.537 1499.19 979.083C1499.27 979.159 1499.38 979.202 1499.46 979.269C1499.7 979.444 1499.93 979.627 1500.22 979.739C1500.61 979.903 1501.04 980 1501.51 980C1502.95 980 1504.2 979.119 1504.72 977.861C1504.9 977.443 1505 976.982 1505 976.5C1505 976.018 1504.9 975.557 1504.72 975.139C1504.2 973.881 1502.95 973 1501.51 973M1618.5 1013H1618.49C1616.56 1013 1615 1014.57 1615 1016.5C1615 1018.43 1616.57 1020 1618.5 1020C1620.43 1020 1622 1018.43 1622 1016.5C1622 1014.57 1620.43 1013 1618.5 1013M1618.5 973H1618.49C1616.56 973 1615 974.567 1615 976.5C1615 978.43 1616.57 980 1618.5 980C1620.43 980 1622 978.43 1622 976.5C1622 974.567 1620.43 973 1618.5 973M1618.5 1055H1618.49C1616.56 1055 1615 1056.57 1615 1058.5C1615 1060.43 1616.57 1062 1618.5 1062C1620.43 1062 1622 1060.43 1622 1058.5C1622 1056.57 1620.43 1055 1618.5 1055M1618.5 1034H1618.49C1616.56 1034 1615 1035.57 1615 1037.5C1615 1039.43 1616.57 1041 1618.5 1041C1620.43 1041 1622 1039.43 1622 1037.5C1622 1035.57 1620.43 1034 1618.5 1034M1594.51 939C1596.44 939 1598 937.433 1598 935.5C1598 935.5 1598 935.498 1598 935.495C1598 934.928 1597.83 934.412 1597.59 933.938C1597.57 933.892 1597.54 933.859 1597.51 933.816C1597.26 933.368 1596.91 932.995 1596.49 932.696V932.696H1596.49C1595.92 932.29 1595.26 932 1594.51 932H1594.49C1592.56 932 1591 933.567 1591 935.5C1591 937.433 1592.58 939 1594.51 939M1618.5 952H1618.49C1616.56 952 1615 953.567 1615 955.5C1615 957.433 1616.57 959 1618.5 959C1620.43 959 1622 957.433 1622 955.5C1622 953.567 1620.43 952 1618.5 952M1594.5 973H1594.49C1592.56 973 1591 974.567 1591 976.5C1591 978.43 1592.57 980 1594.5 980C1596.43 980 1598 978.43 1598 976.5C1598 974.567 1596.43 973 1594.5 973M1594.5 1034H1594.49C1592.56 1034 1591 1035.57 1591 1037.5C1591 1039.43 1592.57 1041 1594.5 1041C1596.43 1041 1598 1039.43 1598 1037.5C1598 1035.57 1596.43 1034 1594.5 1034M1594.5 1013H1594.49C1592.56 1013 1591 1014.57 1591 1016.5C1591 1018.43 1592.57 1020 1594.5 1020C1596.43 1020 1598 1018.43 1598 1016.5C1598 1014.57 1596.43 1013 1594.5 1013M1594.5 994H1594.49C1592.56 994 1591 995.565 1591 997.5C1591 999.43 1592.57 1001 1594.5 1001C1596.43 1001 1598 999.43 1598 997.5C1598 995.565 1596.43 994 1594.5 994M1594.5 1055H1594.49C1592.56 1055 1591 1056.57 1591 1058.5C1591 1060.43 1592.57 1062 1594.5 1062C1596.43 1062 1598 1060.43 1598 1058.5C1598 1056.57 1596.43 1055 1594.5 1055M1548.5 1020C1550.43 1020 1552 1018.43 1552 1016.5C1552 1014.57 1550.43 1013 1548.5 1013H1548.49C1546.56 1013 1545 1014.57 1545 1016.5C1545 1018.43 1546.57 1020 1548.5 1020M1550.98 1076.03C1550.87 1075.92 1550.73 1075.87 1550.61 1075.78C1550.02 1075.32 1549.31 1075 1548.5 1075H1548.49C1546.56 1075 1545 1076.57 1545 1078.5C1545 1079.45 1545.39 1080.31 1546 1080.94C1546.01 1080.94 1546.01 1080.94 1546.01 1080.94C1546.64 1081.59 1547.53 1082 1548.5 1082C1548.69 1082 1548.85 1081.92 1549.03 1081.9V1081.9C1549.03 1081.9 1549.03 1081.89 1549.03 1081.89C1549.86 1081.76 1550.58 1081.38 1551.1 1080.78C1551.19 1080.69 1551.24 1080.58 1551.31 1080.48C1551.47 1080.25 1551.64 1080.04 1551.74 1079.78C1551.9 1079.39 1551.99 1078.97 1552 1078.52C1552 1078.51 1552 1078.51 1552 1078.5C1552 1077.61 1551.64 1076.82 1551.1 1076.21C1551.05 1076.15 1551.03 1076.08 1550.98 1076.03M1640.14 979.725C1640.56 979.903 1641.02 980 1641.51 980C1642.02 980 1642.49 979.879 1642.93 979.682C1642.94 979.675 1642.95 979.663 1642.97 979.656C1643.39 979.456 1643.76 979.176 1644.07 978.83C1644.64 978.21 1645 977.403 1645 976.501C1645 974.569 1643.43 973 1641.51 973H1641.49C1639.56 973 1638 974.569 1638 976.501C1638 977.949 1638.88 979.193 1640.14 979.725M1641.51 1001C1643.43 1001 1645 999.43 1645 997.5C1645 995.565 1643.43 994 1641.51 994H1641.49C1639.56 994 1638 995.565 1638 997.5C1638 999.43 1639.57 1001 1641.51 1001M1641.51 1020C1643.43 1020 1645 1018.43 1645 1016.5C1645 1014.57 1643.43 1013 1641.51 1013H1641.49C1639.56 1013 1638 1014.57 1638 1016.5C1638 1018.43 1639.57 1020 1641.51 1020M1571.5 973H1571.49C1569.56 973 1568 974.567 1568 976.5C1568 978.43 1569.57 980 1571.5 980C1573.43 980 1575 978.43 1575 976.5C1575 974.567 1573.43 973 1571.5 973M1571.5 952H1571.49C1569.56 952 1568 953.567 1568 955.5C1568 957.433 1569.57 959 1571.5 959C1573.43 959 1575 957.433 1575 955.5C1575 953.567 1573.43 952 1571.5 952M1571.5 932H1571.49C1569.56 932 1568 933.567 1568 935.5C1568 937.433 1569.57 939 1571.5 939C1573.43 939 1575 937.433 1575 935.5C1575 933.567 1573.43 932 1571.5 932M1548.5 1062C1550.43 1062 1552 1060.43 1552 1058.5C1552 1056.57 1550.43 1055 1548.5 1055H1548.49C1546.56 1055 1545 1056.57 1545 1058.5C1545 1060.43 1546.57 1062 1548.5 1062M1548.5 1041C1550.43 1041 1552 1039.43 1552 1037.5C1552 1035.57 1550.43 1034 1548.5 1034H1548.49C1546.56 1034 1545 1035.57 1545 1037.5C1545 1039.43 1546.57 1041 1548.5 1041M1571.5 994H1571.49C1569.56 994 1568 995.565 1568 997.5C1568 999.43 1569.57 1001 1571.5 1001C1573.43 1001 1575 999.43 1575 997.5C1575 995.565 1573.43 994 1571.5 994M1594.5 952H1594.49C1592.56 952 1591 953.567 1591 955.5C1591 957.433 1592.57 959 1594.5 959C1596.43 959 1598 957.433 1598 955.5C1598 953.567 1596.43 952 1594.5 952M1571.5 1055H1571.49C1569.56 1055 1568 1056.57 1568 1058.5C1568 1060.43 1569.57 1062 1571.5 1062C1573.43 1062 1575 1060.43 1575 1058.5C1575 1056.57 1573.43 1055 1571.5 1055M1571.5 1075H1571.49C1569.56 1075 1568 1076.57 1568 1078.5C1568 1080.43 1569.57 1082 1571.5 1082C1573.43 1082 1575 1080.43 1575 1078.5C1575 1076.57 1573.43 1075 1571.5 1075M1571.5 1034H1571.49C1569.56 1034 1568 1035.57 1568 1037.5C1568 1039.43 1569.57 1041 1571.5 1041C1573.43 1041 1575 1039.43 1575 1037.5C1575 1035.57 1573.43 1034 1571.5 1034M1571.5 1013H1571.49C1569.56 1013 1568 1014.57 1568 1016.5C1568 1018.43 1569.57 1020 1571.5 1020C1573.43 1020 1575 1018.43 1575 1016.5C1575 1014.57 1573.43 1013 1571.5 1013" fill="#68D585"/>
</g>
</svg>
